HIERARCHY
ROOT Hips
{
	OFFSET 0.000000 0.000000 0.000000
	CHANNELS 6 Xposition Yposition Zposition Zrotation Yrotation Xrotation 
	JOINT LHipJoint
	{
		OFFSET 0.000000 0.000000 0.000000
		CHANNELS 3 Zrotation Yrotation Xrotation
		JOINT LeftUpLeg
		{
			OFFSET 1.363060 -1.794630 0.839290
			CHANNELS 3 Zrotation Yrotation Xrotation
			JOINT LeftLeg
			{
				OFFSET 2.448110 -6.726130 0.000000
				CHANNELS 3 Zrotation Yrotation Xrotation
				JOINT LeftFoot
				{
					OFFSET 2.562200 -7.039590 0.000000
					CHANNELS 3 Zrotation Yrotation Xrotation
					JOINT LeftToeBase
					{
						OFFSET 0.157640 -0.433110 2.322550
						CHANNELS 3 Zrotation Yrotation Xrotation
						End Site
						{
							OFFSET 0.000000 0.000000 0.000000
						}
					}
				}
			}
		}
	}
	JOINT RHipJoint
	{
		OFFSET 0.000000 0.000000 0.000000
		CHANNELS 3 Zrotation Yrotation Xrotation
		JOINT RightUpLeg
		{
			OFFSET -1.305520 -1.794630 0.839290
			CHANNELS 3 Zrotation Yrotation Xrotation
			JOINT RightLeg
			{
				OFFSET -2.542530 -6.985550 0.000000
				CHANNELS 3 Zrotation Yrotation Xrotation
				JOINT RightFoot
				{
					OFFSET -2.568260 -7.056230 0.000000
					CHANNELS 3 Zrotation Yrotation Xrotation
					JOINT RightToeBase
					{
						OFFSET -0.164730 -0.452590 2.363150
						CHANNELS 3 Zrotation Yrotation Xrotation
						End Site
						{
							OFFSET 0.000000 0.000000 0.000000
						}
					}
				}
			}
		}
	}
	JOINT LowerBack
	{
		OFFSET 0.000000 0.000000 0.000000
		CHANNELS 3 Zrotation Yrotation Xrotation
		JOINT Spine
		{
			OFFSET 0.028270 2.035590 -0.193380
			CHANNELS 3 Zrotation Yrotation Xrotation
			JOINT Spine1
			{
				OFFSET 0.056720 2.048850 -0.042750
				CHANNELS 3 Zrotation Yrotation Xrotation
				JOINT Neck
				{
					OFFSET 0.000000 0.000000 0.000000
					CHANNELS 3 Zrotation Yrotation Xrotation
					JOINT Neck1
					{
						OFFSET -0.054170 1.746240 0.172020
						CHANNELS 3 Zrotation Yrotation Xrotation
						JOINT Head
						{
							OFFSET 0.104070 1.761360 -0.123970
							CHANNELS 3 Zrotation Yrotation Xrotation
							End Site
							{
								OFFSET 0.000000 0.000000 0.000000
							}
						}
					}
				}
				JOINT LeftShoulder
				{
					OFFSET 0.000000 0.000000 0.000000
					CHANNELS 3 Zrotation Yrotation Xrotation
					JOINT LeftArm
					{
						OFFSET 3.362410 1.200890 -0.311210
						CHANNELS 3 Zrotation Yrotation Xrotation
						JOINT LeftForeArm
						{
							OFFSET 4.983000 -0.000000 -0.000000
							CHANNELS 3 Zrotation Yrotation Xrotation
							JOINT LeftHand
							{
								OFFSET 3.483560 -0.000000 -0.000000
								CHANNELS 3 Zrotation Yrotation Xrotation
								JOINT LeftFingerBase
								{
									OFFSET 0.000000 0.000000 0.000000
									CHANNELS 3 Zrotation Yrotation Xrotation
									JOINT LeftHandIndex1
									{
										OFFSET 0.715260 -0.000000 -0.000000
										CHANNELS 3 Zrotation Yrotation Xrotation
										End Site
										{
											OFFSET 0.000000 0.000000 0.000000
										}
									}
								}
								JOINT LThumb
								{
									OFFSET 0.000000 0.000000 0.000000
									CHANNELS 3 Zrotation Yrotation Xrotation
									End Site
									{
										OFFSET 0.000000 0.000000 0.000000
									}
								}
							}
						}
					}
				}
				JOINT RightShoulder
				{
					OFFSET 0.000000 0.000000 0.000000
					CHANNELS 3 Zrotation Yrotation Xrotation
					JOINT RightArm
					{
						OFFSET -3.136600 1.374050 -0.404650
						CHANNELS 3 Zrotation Yrotation Xrotation
						JOINT RightForeArm
						{
							OFFSET -5.241900 -0.000000 -0.000000
							CHANNELS 3 Zrotation Yrotation Xrotation
							JOINT RightHand
							{
								OFFSET -3.444170 -0.000000 -0.000000
								CHANNELS 3 Zrotation Yrotation Xrotation
								JOINT RightFingerBase
								{
									OFFSET 0.000000 0.000000 0.000000
									CHANNELS 3 Zrotation Yrotation Xrotation
									JOINT RightHandIndex1
									{
										OFFSET -0.622530 -0.000000 -0.000000
										CHANNELS 3 Zrotation Yrotation Xrotation
										End Site
										{
											OFFSET 0.000000 0.000000 0.000000
										}
									}
								}
								JOINT RThumb
								{
									OFFSET 0.000000 0.000000 0.000000
									CHANNELS 3 Zrotation Yrotation Xrotation
									End Site
									{
										OFFSET 0.000000 0.000000 0.000000
									}
								}
							}
						}
					}
				}
			}
		}
	}
}
MOTION
Frames: 7
Frame Time: 0.008333
1.200405 17.731134 -34.293229 -0.594589 3.910712 3.611362 0.580238 0.404842 0.322862 -23.017467 -7.909034 -9.429829 1.607757 9.853729 28.017990 1.736161 -6.872194 -9.630789 0.082200 1.849300 5.089500 -2.231918 -0.459065 -0.879539 22.367512 -0.631804 -17.406117 -4.870667 -13.437791 41.037192 -1.290594 2.874638 -16.095118 -0.007900 -0.572400 1.573000 -4.744822 -3.794498 6.069710 -0.464474 -5.131086 -1.692819 1.048378 -2.874103 -1.017326 -3.374231 -9.644141 -6.559304 13.321424 -13.392858 5.752238 2.936300 -6.028900 5.242400 0.689628 4.672615 -0.715927 -84.240640 6.688564 18.027766 17.041705 -27.768675 -3.973221 0.435876 -0.328752 4.882846 5.313962 41.536948 3.243900 -7.125000 0.000000 0.000000 -43.238900 67.122000 -24.864900 -0.649473 -4.628383 -1.208009 87.723075 0.423618 -12.567602 -8.244939 15.626789 -0.917628 1.022213 0.125058 5.015471 -14.710138 15.779348 -4.296900 7.125000 0.000000 0.000000 8.019800 -14.036300 5.894400 
1.189575 17.737877 -34.286077 -0.748700 3.816823 3.582697 0.579555 0.410943 0.331416 -22.812801 -7.816296 -9.370650 1.590830 9.833477 27.958515 1.705957 -6.598653 -9.746009 0.059100 1.568100 4.313400 -2.253403 -0.462272 -0.887278 22.556396 -0.205508 -16.795948 -4.675428 -13.198670 40.165708 -1.199972 2.895915 -15.107576 -0.111300 -2.151400 5.924100 -4.619756 -3.720317 6.011996 -0.445397 -5.024529 -1.700017 1.059879 -2.820271 -1.030362 -3.440369 -9.561301 -6.479191 13.268790 -13.262811 5.644878 2.947800 -5.982800 5.175400 0.697646 4.669008 -0.711172 -84.181709 6.706137 18.005125 16.853541 -27.517890 -3.887293 0.433494 -0.330938 4.958475 5.777366 41.183555 3.531600 -7.125000 0.000000 0.000000 -42.196500 67.014500 -24.078400 -0.646217 -4.638633 -1.207234 87.787542 0.260574 -12.336301 -8.278788 15.679445 -0.925885 1.024056 0.141259 4.687338 -14.857138 15.678342 -4.308900 7.125000 0.000000 0.000000 7.917800 -14.137500 5.800800 
1.185284 17.736344 -34.283318 -0.840739 3.715274 3.545627 0.579124 0.412261 0.335002 -22.701422 -7.797706 -9.388258 1.602692 9.866070 28.058942 1.680344 -6.364981 -9.870254 0.073600 1.750100 4.815500 -2.261559 -0.464864 -0.893436 22.655862 -0.145454 -16.435182 -4.555946 -13.048078 39.621675 -1.200323 2.928675 -15.064627 -0.062600 -1.614300 4.441000 -4.501738 -3.652902 6.005096 -0.430245 -4.930611 -1.706988 1.058732 -2.770341 -1.079553 -3.532139 -9.558636 -6.281704 13.263400 -13.234805 5.423263 2.977800 -5.997200 5.055400 0.702486 4.660352 -0.702760 -84.267781 6.702520 17.589765 16.665044 -27.255426 -3.788443 0.429495 -0.336669 5.254423 6.131047 41.554645 3.796400 -7.125000 0.000000 0.000000 -42.487700 67.393700 -24.620500 -0.641089 -4.646735 -1.202527 87.764380 0.172991 -12.422193 -8.208658 15.540439 -0.899078 1.029850 0.136259 4.528033 -14.865573 15.811102 -4.351200 7.125000 0.000000 0.000000 7.910000 -13.993800 5.819300 
1.175271 17.729090 -34.282092 -0.797940 3.511382 3.572919 0.576368 0.408915 0.339824 -22.698443 -7.531008 -9.507690 1.611719 9.875350 28.086192 1.716084 -6.506048 -10.020356 0.037400 1.248500 3.432700 -2.270301 -0.466584 -0.897762 22.678068 0.083020 -16.113453 -4.429192 -12.902450 39.088308 -1.100534 2.263407 -14.960809 -0.078000 -1.801800 4.958100 -4.611417 -3.525845 5.909556 -0.423744 -4.766501 -1.705654 1.142037 -2.686370 -1.043757 -3.405416 -9.524572 -6.160001 13.027252 -13.176526 5.122976 2.875500 -6.006500 4.876600 0.722612 4.643639 -0.694585 -84.265515 6.807472 17.589363 16.684266 -27.284399 -3.786934 0.433793 -0.332840 5.021530 5.407855 42.404362 3.363200 -7.125000 0.000000 0.000000 -44.676200 67.760700 -26.439800 -0.626022 -4.678272 -1.203288 87.816099 0.060875 -12.532630 -8.240672 15.605618 -0.908670 1.031395 0.129938 4.353435 -14.735540 15.980354 -4.362800 7.125000 0.000000 0.000000 7.998700 -13.823200 5.915000 
1.170469 17.723982 -34.275144 -0.951519 3.365842 3.549615 0.575329 0.411866 0.343898 -22.499647 -7.554834 -9.480038 1.620991 9.894098 28.146057 1.720402 -6.448156 -10.157667 0.079100 1.813800 4.991400 -2.281134 -0.469579 -0.905238 22.872207 0.238876 -15.732381 -4.314313 -12.762916 38.585710 -1.041394 1.893243 -14.869641 -0.066300 -1.660900 4.569400 -4.374500 -3.483123 5.821788 -0.411914 -4.692900 -1.704266 1.067735 -2.649815 -1.019249 -3.517943 -9.450009 -6.120655 13.020981 -13.055101 5.033338 2.914600 -5.959300 4.834600 0.719636 4.646697 -0.690900 -84.284037 6.868189 17.245497 16.575818 -27.137094 -3.743432 0.436269 -0.331882 5.019934 5.334683 41.701165 3.267400 -7.125000 0.000000 0.000000 -43.505600 67.245600 -25.158800 -0.624841 -4.684950 -1.194907 87.874504 0.062428 -13.002026 -8.166133 15.487193 -0.895113 1.021659 0.112496 4.670470 -14.386796 15.965772 -4.259300 7.125000 0.000000 0.000000 8.239400 -13.855200 6.091100 
1.172308 17.725923 -34.271773 -0.786676 3.239074 3.659350 0.572378 0.408565 0.347703 -22.689188 -7.381353 -9.524496 1.616949 9.890998 28.132556 1.720792 -6.381126 -10.302146 0.028700 1.092900 3.004500 -2.275543 -0.467622 -0.905467 22.639566 0.178721 -15.586568 -4.239569 -12.641710 38.165382 -1.166406 2.799020 -14.887796 -0.126900 -2.296200 6.325000 -4.411871 -3.456906 5.610620 -0.422364 -4.651239 -1.721461 1.038524 -2.630183 -0.947457 -3.456334 -9.393647 -6.284356 12.742878 -12.976296 5.135036 2.803100 -5.921600 4.871900 0.718427 4.648927 -0.693040 -84.298172 6.832731 17.065416 16.326224 -26.802615 -3.639819 0.434424 -0.333857 4.926450 6.033978 40.692526 3.666300 -7.125000 0.000000 0.000000 -41.143300 66.738700 -23.143300 -0.626454 -4.697119 -1.206952 87.844320 -0.054749 -12.650867 -8.173098 15.506126 -0.892525 1.031882 0.094453 4.347348 -14.237356 16.423310 -4.344700 7.125000 0.000000 0.000000 8.338800 -13.380100 6.250800 
1.160661 17.729192 -34.266358 -1.141725 2.968382 3.603817 0.566787 0.413638 0.358938 -22.239069 -7.234351 -9.606677 1.617279 9.899190 28.158385 1.713764 -6.204179 -10.493288 0.036000 1.225300 3.368900 -2.297486 -0.472874 -0.908623 23.181589 0.435487 -15.091670 -4.124226 -12.488623 37.627749 -1.147193 2.858952 -14.585053 -0.060000 -1.580300 4.347200 -4.065432 -3.426649 5.618317 -0.370295 -4.598407 -1.751462 1.039075 -2.600704 -1.054324 -3.559627 -9.273721 -6.247767 12.659627 -12.804002 5.236894 2.812900 -5.839900 4.895900 0.729964 4.647640 -0.694371 -84.353360 7.125599 16.461157 16.271231 -26.722085 -3.617215 0.434996 -0.332922 5.371059 5.440291 40.364198 3.250600 -7.125000 0.000000 0.000000 -41.192100 66.313900 -22.787800 -0.622209 -4.690128 -1.210388 87.929539 -0.165794 -12.109609 -8.242908 15.613671 -0.914195 1.029044 0.122903 3.571524 -14.345209 16.225721 -4.320500 7.125000 0.000000 0.000000 8.264600 -13.585900 6.157700 
